<?xml version="1.0" encoding="UTF-8"?><svg id="Layer_1" xmlns="http://www.w3.org/2000/svg" viewBox="0 0 93.62 139.67"><defs><style>.cls-1{fill:#fff;}</style></defs><path class="cls-1" d="M.02,91.53c.7-3.38,1.19-6.81,2.14-10.11,2.54-8.84,7.37-16.56,12.54-24.02,6.65-9.58,13.64-18.93,20.31-28.49,4.69-6.73,8.88-13.77,10.97-21.82,.57-2.18,.84-4.43,1.34-7.09,1.05,.67,2.07,1.17,2.92,1.88,7.52,6.26,12.23,14.31,14.83,23.67,3.01,10.84,1.59,21.23-3.23,31.27-5.14,10.69-12.18,20.15-19.1,29.71-4.81,6.63-9.51,13.35-14.01,20.2-4.39,6.68-7.67,13.88-8.77,21.93-.1,.73-.39,1.43-.66,2.38-3.99-3-7.33-6.37-10.15-10.25-5.14-7.04-7.95-14.96-8.81-23.61-.05-.49-.23-.97-.34-1.46v-4.17l.02-.02Z"/><path class="cls-1" d="M40.16,139.66c-3.34-1.43-3.39-1.63-2.77-5.48,1.14-7.06,4.2-13.38,8.06-19.2,6.3-9.51,13.04-18.73,19.59-28.07,5.87-8.36,11.82-16.68,15.53-26.31,.83-2.15,1.55-4.34,2.46-6.88,4.68,10.94,8.79,21.61,10.16,33.12,1.2,10.03-.03,19.68-5.03,28.58-6.77,12.05-16.9,19.86-30.32,23.23-2.3,.58-4.71,.69-7.08,1.02h-10.6Z"/></svg>